<?xml version="1.0" encoding="UTF-8"?>
<svg width="106px" height="182px" viewBox="0 0 106 182" version="1.1" xmlns="http://www.w3.org/2000/svg" xmlns:xlink="http://www.w3.org/1999/xlink">
    <!-- Generator: Sketch 53.1 (72631) - https://sketchapp.com -->
    <title>3</title>
    <desc>Created with Sketch.</desc>
    <g id="网站设计" stroke="none" stroke-width="1" fill="none" fill-rule="evenodd">
        <g id="首页" transform="translate(-1051.000000, -447.000000)" fill-rule="nonzero">
            <g id="分组" transform="translate(924.000000, 312.000000)">
                <g id="分组-3" transform="translate(0.000000, 104.000000)">
                    <g id="3" transform="translate(127.000000, 31.000000)">
                        <g id="Group" transform="translate(0.000000, 29.000000)">
                            <polygon id="Shape" fill="#00A78E" points="20.0413793 8.10985915 19.8551724 76.3408451 13.337931 80.0591549 13.5241379 11.828169"></polygon>
                            <polygon id="Shape" fill="#006455" points="92.662069 49.9408451 92.4758621 118.171831 19.8551724 76.3408451 20.0413793 8.10985915"></polygon>
                            <path d="M20.0413793,0.487323944 L105.882759,49.9408451 L86.1448276,61.2816901 L0.303448276,11.828169 L20.0413793,0.487323944 Z M86.1448276,53.6591549 L92.662069,49.9408451 L20.0413793,8.10985915 L13.5241379,11.828169 L86.1448276,53.6591549 L86.1448276,53.6591549 Z" id="Shape" fill="#49FFE4"></path>
                            <polygon id="Shape" fill="#00A78E" points="105.882759 49.9408451 105.696552 118.171831 85.9586207 129.512676 86.1448276 61.2816901"></polygon>
                            <polygon id="Shape" fill="#006455" points="86.1448276 61.2816901 85.9586207 129.512676 0.117241379 80.0591549 0.303448276 11.828169"></polygon>
                        </g>
                        <polygon id="Shape" fill="#006455" points="77 130.107759 77 134 9 94.8922414 9 91"></polygon>
                        <polygon id="Shape" fill="#00A78E" points="37 126.788889 37 130 13 116.022222 13 113"></polygon>
                        <polygon id="Shape" fill="#00A78E" points="58 144.859873 58 148 13 122.140127 13 119"></polygon>
                        <g id="Group" transform="translate(13.000000, 122.000000)" fill="#00A78E">
                            <polygon id="Shape" points="14.17 22.6875 14.17 25.875 0.11 17.4375 0.11 14.4375"></polygon>
                            <polygon id="Shape" points="35.445 26.0625 35.445 29.0625 0.11 8.4375 0.11 5.25"></polygon>
                            <polygon id="Shape" points="35.445 21.375 35.445 24.5625 0.11 3.75 0.11 0.75"></polygon>
                        </g>
                        <polygon id="Shape" fill="#00A78E" points="35 145.108434 35 148 13 135.891566 13 133"></polygon>
                        <g id="Group" transform="translate(23.000000, 0.000000)">
                            <g id="Shape">
                                <polygon fill="#00D2B3" points="19.1484848 27.9545455 19.1484848 30.9363636 7.5030303 24.0409091 7.5030303 21.0590909"></polygon>
                                <polygon fill="#00D2B3" points="38.0030303 52.5545455 38.0030303 55.5363636 23.9545455 47.3363636 23.9545455 44.3545455"></polygon>
                                <path d="M0.478787879,0.931818182 L59.4454545,35.2227273 L59.2606061,80.8818182 L0.293939394,46.5909091 L0.478787879,0.931818182 Z M52.2363636,45.6590909 L52.2363636,42.6772727 L7.31818182,16.5863636 L7.31818182,19.5681818 L52.2363636,45.6590909 L52.2363636,45.6590909 Z M7.5030303,25.5318182 L7.5030303,28.5136364 L42.9939394,49.2 L42.9939394,46.2181818 L7.5030303,25.5318182 L7.5030303,25.5318182 Z M7.5030303,11.9272727 L7.5030303,14.9090909 L31.1636364,28.7 L31.1636364,25.7181818 L7.5030303,11.9272727 L7.5030303,11.9272727 Z M52.2363636,59.2636364 L52.2363636,56.2818182 L30.7939394,43.7954545 L30.7939394,46.7772727 L52.2363636,59.2636364 L52.2363636,59.2636364 Z M7.31818182,30.1909091 L7.31818182,33.1727273 L28.7606061,45.6590909 L28.7606061,42.6772727 L7.31818182,30.1909091 L7.31818182,30.1909091 Z M21.5515152,46.0318182 L21.5515152,43.05 L7.31818182,34.85 L7.31818182,37.8318182 L21.5515152,46.0318182 L21.5515152,46.0318182 Z M38.0030303,55.5363636 L38.0030303,52.5545455 L23.769697,44.3545455 L23.769697,47.3363636 L38.0030303,55.5363636 L38.0030303,55.5363636 Z M7.5030303,21.0590909 L7.5030303,24.0409091 L19.3333333,30.9363636 L19.3333333,27.9545455 L7.5030303,21.0590909 L7.5030303,21.0590909 Z M35.7848485,40.6272727 L47.6151515,47.5227273 L47.6151515,44.5409091 L35.7848485,37.6454545 L35.7848485,40.6272727 L35.7848485,40.6272727 Z M21.5515152,32.2409091 L33.3818182,39.1363636 L33.3818182,36.1545455 L21.5515152,29.2590909 L21.5515152,32.2409091 L21.5515152,32.2409091 Z" fill="#00A78E"></path>
                                <polygon fill="#00D2B3" points="28.7606061 42.6772727 28.7606061 45.6590909 7.31818182 33.1727273 7.31818182 30.1909091"></polygon>
                                <polygon fill="#FFFFFF" points="33.3818182 36.1545455 33.3818182 39.1363636 21.5515152 32.2409091 21.5515152 29.2590909"></polygon>
                                <polygon fill="#00D2B3" points="42.8090909 46.2181818 42.8090909 49.2 7.31818182 28.7 7.5030303 25.5318182"></polygon>
                                <polygon fill="#FFFFFF" points="30.9787879 25.7181818 30.9787879 28.7 7.5030303 14.9090909 7.5030303 11.9272727"></polygon>
                                <polygon fill="#FFFFFF" points="52.2363636 56.2818182 52.2363636 59.2636364 30.7939394 46.7772727 30.7939394 43.7954545"></polygon>
                                <polygon fill="#00D2B3" points="47.6151515 44.3545455 47.6151515 47.3363636 35.7848485 40.6272727 35.7848485 37.4590909"></polygon>
                                <polygon fill="#00D2B3" points="52.2363636 42.4909091 52.2363636 45.6590909 7.5030303 19.5681818 7.5030303 16.4"></polygon>
                            </g>
                            <polygon id="Shape" fill="#FFFFFF" points="21.5515152 42.8636364 21.5515152 46.0318182 7.31818182 37.6454545 7.31818182 34.6636364"></polygon>
                        </g>
                        <path d="M12.8403361,95.2589002 C12.1008403,94.887418 11.1764706,94.887418 10.0672269,95.4446414 C7.8487395,96.7448292 6.18487395,99.716687 6.18487395,102.317063 L8.77310924,103.802991 L6.18487395,102.317063 L6,147.823635 L64.9747899,182 L65.1596639,136.86491 L65.3445378,136.86491 C65.3445378,134.264534 67.1932773,131.292676 69.2268908,129.992488 C70.3361345,129.435265 71.2605042,129.249524 72,129.806747 L12.8403361,95.2589002 Z M36.6890756,126.277666 L36.6890756,129.249524 L13.0252101,115.504682 L13.0252101,112.532824 L36.6890756,126.277666 Z M27.0756303,148.195117 L12.8403361,140.022508 L12.8403361,137.050651 L27.0756303,145.22326 L27.0756303,148.195117 Z M34.4705882,147.823635 L13.0252101,135.378981 L13.0252101,132.407123 L34.4705882,144.851777 L34.4705882,147.823635 Z M48.3361345,151.352716 L13.0252101,130.921194 L13.0252101,127.949336 L48.5210084,148.5666 L48.3361345,151.352716 Z M48.3361345,146.89493 L13.0252101,126.277666 L13.0252101,123.305808 L48.5210084,143.923072 L48.3361345,146.89493 Z M57.9495798,147.823635 L13.0252101,121.819879 L13.0252101,118.848022 L57.9495798,144.851777 L57.9495798,147.823635 Z" id="Shape" fill="#FFFFFF"></path>
                    </g>
                </g>
            </g>
        </g>
    </g>
</svg>