<?xml version="1.0" encoding="UTF-8"?>
<svg width="215px" height="190px" viewBox="0 0 215 190" version="1.1" xmlns="http://www.w3.org/2000/svg" xmlns:xlink="http://www.w3.org/1999/xlink">
    <!-- Generator: Sketch 53.1 (72631) - https://sketchapp.com -->
    <title>2</title>
    <desc>Created with Sketch.</desc>
    <g id="网站设计" stroke="none" stroke-width="1" fill="none" fill-rule="evenodd">
        <g id="首页" transform="translate(-611.000000, -929.000000)" fill-rule="nonzero">
            <g id="分组" transform="translate(540.000000, 768.000000)">
                <g id="2" transform="translate(70.500000, 161.000000)">
                    <g id="未标题-1-09" transform="translate(0.500000, 0.000000)">
                        <g id="Group" transform="translate(70.470807, 0.000000)">
                            <g transform="translate(0.000000, 9.821865)" id="Shape">
                                <polygon fill="#2D8CEF" points="9.38018196 95.6187422 30.3621679 83.5869579 53.0720821 96.6009287 32.0900962 108.632713"></polygon>
                                <polygon fill="#74BAF6" points="32.3369431 40.8618462 53.318929 28.8300619 53.0720821 96.6009287 32.0900962 108.632713"></polygon>
                                <polygon fill="#2D8CEF" points="38.2612685 93.4088227 58.9964076 81.3770383 58.9964076 100.038581 38.0144216 112.070366"></polygon>
                                <polygon fill="#2D8CEF" points="9.62702885 27.8478754 30.3621679 15.5705444 30.3621679 83.5869579 9.38018196 95.6187422"></polygon>
                                <polygon fill="#2D8CEF" points="38.2612685 68.8541608 58.9964076 56.8223764 58.9964076 75.4839195 38.2612685 87.5157038"></polygon>
                                <polygon fill="#74BAF6" points="9.62702885 27.8478754 30.3621679 15.5705444 53.318929 28.8300619 32.3369431 40.8618462"></polygon>
                                <polygon fill="#2D8CEF" points="38.2612685 44.2994989 59.2432545 32.2677145 59.2432545 50.6837109 38.2612685 62.9610419"></polygon>
                                <polygon fill="#2D8CEF" points="38.0144216 112.070366 58.9964076 100.038581 134.28471 143.254786 113.302724 155.286571"></polygon>
                                <polygon fill="#74BAF6" points="38.2612685 93.4088227 58.9964076 81.3770383 134.28471 124.593243 113.549571 136.625028"></polygon>
                                <polygon fill="#1781F3" points="113.549571 136.625028 113.302724 155.286571 38.0144216 112.070366 38.2612685 93.4088227"></polygon>
                                <polygon fill="#74BAF6" points="113.549571 136.625028 134.28471 124.593243 134.28471 143.254786 113.302724 155.286571"></polygon>
                                <polygon fill="#2D8CEF" points="38.2612685 87.5157038 58.9964076 75.4839195 134.28471 118.700124 113.549571 130.731909"></polygon>
                                <polygon fill="#74BAF6" points="113.549571 112.070366 134.531557 100.038581 134.28471 118.700124 113.549571 130.731909"></polygon>
                                <polygon fill="#74BAF6" points="38.2612685 68.8541608 58.9964076 56.8223764 134.531557 100.038581 113.549571 112.070366"></polygon>
                                <polygon fill="#2D8CEF" points="38.2612685 62.9610419 59.2432545 50.6837109 134.531557 94.1454625 113.549571 106.177247"></polygon>
                                <polygon fill="#74BAF6" points="38.2612685 44.2994989 59.2432545 32.2677145 134.531557 75.4839195 113.549571 87.5157038"></polygon>
                                <polygon fill="#1781F3" points="113.549571 87.5157038 113.549571 106.177247 38.2612685 62.9610419 38.2612685 44.2994989"></polygon>
                                <polygon fill="#74BAF6" points="113.549571 87.5157038 134.531557 75.4839195 134.531557 94.1454625 113.549571 106.177247"></polygon>
                                <path d="M0.987387575,12.623985 L123.423447,83.0958647 L123.1766,173.211474 L0.493693787,102.739594 L0.987387575,12.623985 Z M32.0900962,108.632713 L32.3369431,40.8618462 L9.62702885,27.8478754 L9.38018196,95.6187422 L32.0900962,108.632713 L32.0900962,108.632713 Z M113.302724,155.286571 L113.302724,136.625028 L38.2612685,93.4088227 L38.2612685,112.070366 L113.302724,155.286571 L113.302724,155.286571 Z M113.549571,130.731909 L113.549571,112.070366 L38.2612685,68.8541608 L38.2612685,87.5157038 L113.549571,130.731909 L113.549571,130.731909 Z M113.549571,106.177247 L113.549571,87.5157038 L38.2612685,44.2994989 L38.2612685,62.9610419 L113.549571,106.177247 L113.549571,106.177247 Z" fill="#0242A3"></path>
                                <polygon fill="#1781F3" points="32.3369431 40.8618462 32.0900962 108.632713 9.38018196 95.6187422 9.62702885 27.8478754"></polygon>
                                <polygon fill="#1781F3" points="113.549571 112.070366 113.549571 130.731909 38.2612685 87.5157038 38.2612685 68.8541608"></polygon>
                                <polygon fill="#7FBDFF" points="123.423447 83.0958647 144.405433 71.0640803 144.158586 161.179689 123.1766 173.211474"></polygon>
                                <polygon fill="#2D8CEF" points="0.987387575 12.623985 21.7225266 0.592200669 144.405433 71.0640803 123.423447 83.0958647"></polygon>
                            </g>
                            <g id="Shape">
                                <path d="M30.6090148,10.4140654 C30.6090148,11.6417985 31.3495555,12.8695316 32.3369431,13.3606249 C26.1657707,16.7982775 19.9945984,20.4814768 13.823426,23.9191295 L11.3549571,25.3924092 C10.3675695,24.901316 9.62702885,23.4280362 9.62702885,22.4458498 C16.5387419,18.5171039 23.4504549,14.588358 30.6090148,10.4140654 C23.6973018,14.3428113 16.7855888,18.5171039 9.62702885,22.4458498 C9.62702885,21.9547565 9.87387575,21.4636633 10.1207226,21.2181167 L31.1027086,9.18633233 C30.6090148,9.67742557 30.6090148,9.92297219 30.6090148,10.4140654 Z" fill="#74BAF6"></path>
                                <path d="M32.3369431,13.6061715 C32.8306369,13.8517181 33.3243307,13.8517181 33.5711775,13.6061715 L12.5891916,25.6379558 C12.3423447,25.8835024 11.8486509,25.8835024 11.3549571,25.6379558 C17.7729763,21.9547565 25.9189238,17.0438241 32.3369431,13.6061715 Z" fill="#74BAF6"></path>
                                <path d="M10.1207226,21.4636633 L31.1027086,9.43187895 C31.3495555,9.18633233 31.8432493,9.18633233 32.3369431,9.67742557 L11.3549571,21.7092099 C10.8612633,21.2181167 10.3675695,21.2181167 10.1207226,21.4636633 Z" fill="#FFFFFF"></path>
                                <path d="M33.5711775,13.6061715 L12.5891916,25.6379558 C12.8360385,25.3924092 13.0828854,25.1468626 13.0828854,24.4102227 C13.0828854,23.1824896 12.3423447,21.9547565 11.3549571,21.4636633 L32.3369431,9.43187895 C33.3243307,9.92297219 34.0648713,11.3962519 34.0648713,12.3784384 C34.0648713,13.1150782 33.8180244,13.3606249 33.5711775,13.6061715 Z" fill="#FFFFFF"></path>
                                <path d="M11.3549571,21.4636633 C12.3423447,21.9547565 13.0828854,23.4280362 13.0828854,24.4102227 C13.0828854,25.6379558 12.3423447,25.8835024 11.3549571,25.3924092 C10.3675695,24.901316 9.62702885,23.4280362 9.62702885,22.4458498 C9.62702885,21.4636633 10.3675695,20.97257 11.3549571,21.4636633 Z" fill="#FFFFFF"></path>
                                <path d="M37.5207278,14.588358 C37.5207278,15.816091 38.2612685,17.0438241 39.2486561,17.5349174 C33.0774838,20.97257 26.9063114,24.6557693 20.7351391,28.093422 L18.2666701,29.5667017 C17.2792826,29.0756085 16.5387419,27.6023288 16.5387419,26.6201423 C23.6973018,22.4458498 30.6090148,18.5171039 37.5207278,14.588358 C30.6090148,18.5171039 23.6973018,22.6913964 16.5387419,26.6201423 C16.5387419,26.129049 16.7855888,25.6379558 17.0324357,25.3924092 L38.0144216,13.3606249 C37.7675747,13.6061715 37.5207278,13.8517181 37.5207278,14.588358 Z" fill="#74BAF6"></path>
                                <path d="M39.2486561,17.5349174 C39.7423499,17.780464 40.2360437,17.780464 40.4828906,17.780464 L19.7477515,29.8122483 C19.5009046,30.0577949 19.0072108,30.0577949 18.513517,29.5667017 C24.6846894,25.8835024 33.0774838,21.2181167 39.2486561,17.5349174 Z" fill="#74BAF6"></path>
                                <path d="M17.0324357,25.3924092 L38.0144216,13.3606249 C38.2612685,13.1150782 38.7549623,13.1150782 39.2486561,13.3606249 L18.513517,25.6379558 C18.0198232,25.3924092 17.5261295,25.3924092 17.0324357,25.3924092 Z" fill="#FFFFFF"></path>
                                <path d="M40.4828906,17.5349174 L19.7477515,29.8122483 C19.9945984,29.5667017 20.2414453,29.3211551 20.2414453,28.5845152 C20.2414453,27.3567821 19.5009046,26.129049 18.513517,25.6379558 L39.495503,13.6061715 C40.4828906,14.0972647 41.2234312,15.5705444 41.2234312,16.5527309 C40.9765844,17.0438241 40.7297375,17.5349174 40.4828906,17.5349174 Z" fill="#FFFFFF"></path>
                                <path d="M18.513517,25.6379558 C19.5009046,26.129049 20.2414453,27.6023288 20.2414453,28.5845152 C20.2414453,29.8122483 19.5009046,30.0577949 18.513517,29.5667017 C17.5261295,29.0756085 16.7855888,27.6023288 16.7855888,26.6201423 C16.5387419,25.3924092 17.5261295,25.1468626 18.513517,25.6379558 Z" fill="#FFFFFF"></path>
                                <path d="M44.4324409,18.5171039 C44.4324409,19.744837 45.1729815,20.97257 46.1603691,21.4636633 C39.9891968,24.901316 33.8180244,28.5845152 27.6468521,32.0221679 L25.1783832,33.4954476 C24.1909956,33.0043544 23.4504549,31.5310747 23.4504549,30.5488882 C30.6090148,26.6201423 37.5207278,22.6913964 44.4324409,18.5171039 C37.5207278,22.4458498 30.6090148,26.6201423 23.4504549,30.5488882 C23.4504549,30.0577949 23.6973018,29.5667017 23.9441487,29.3211551 L44.9261347,17.2893708 C44.6792878,17.5349174 44.4324409,18.0260106 44.4324409,18.5171039 Z" fill="#74BAF6"></path>
                                <path d="M46.1603691,21.4636633 C46.6540629,21.7092099 47.1477567,21.7092099 47.3946036,21.7092099 L26.4126176,33.7409942 C26.1657707,33.9865409 25.6720769,33.9865409 25.1783832,33.4954476 C31.5964024,30.0577949 39.9891968,25.1468626 46.1603691,21.4636633 Z" fill="#74BAF6"></path>
                                <path d="M24.1909956,29.5667017 L45.1729815,17.5349174 C45.4198284,17.2893708 45.9135222,17.2893708 46.407216,17.5349174 L25.4252301,29.5667017 C24.9315363,29.3211551 24.4378425,29.3211551 24.1909956,29.5667017 Z" fill="#FFFFFF"></path>
                                <path d="M47.6414505,21.7092099 L26.6594645,33.7409942 C26.9063114,33.4954476 27.1531583,33.249901 27.1531583,32.5132611 C27.1531583,31.285528 26.4126176,30.0577949 25.4252301,29.5667017 L46.407216,17.5349174 C47.3946036,18.0260106 48.1351443,19.4992903 48.1351443,20.4814768 C48.1351443,21.2181167 47.8882974,21.4636633 47.6414505,21.7092099 Z" fill="#FFFFFF"></path>
                                <path d="M25.4252301,29.5667017 C26.4126176,30.0577949 27.1531583,31.5310747 27.1531583,32.5132611 C27.1531583,33.7409942 26.4126176,33.9865409 25.4252301,33.4954476 C24.4378425,33.0043544 23.6973018,31.5310747 23.6973018,30.5488882 C23.6973018,29.5667017 24.4378425,29.0756085 25.4252301,29.5667017 Z" fill="#FFFFFF"></path>
                                <polygon fill="#7FBDFF" points="123.423447 82.850318 144.405433 70.8185337 144.405433 80.8859451 123.423447 92.9177294"></polygon>
                                <polygon fill="#ECF5FF" points="0.987387575 12.623985 21.7225266 0.34665405 144.405433 70.8185337 123.423447 82.850318"></polygon>
                                <path d="M0.987387575,12.623985 L123.423447,82.850318 L123.423447,92.9177294 L0.987387575,22.4458498 L0.987387575,12.623985 Z M18.2666701,29.5667017 C19.2540577,30.0577949 19.9945984,29.5667017 19.9945984,28.5845152 C19.9945984,27.3567821 19.2540577,26.129049 18.2666701,25.6379558 C17.2792826,25.1468626 16.5387419,25.6379558 16.5387419,26.6201423 C16.5387419,27.6023288 17.5261295,29.0756085 18.2666701,29.5667017 L18.2666701,29.5667017 Z M25.4252301,33.7409942 C26.4126176,34.2320875 27.1531583,33.7409942 27.1531583,32.7588078 C27.1531583,31.5310747 26.4126176,30.3033416 25.4252301,29.8122483 C24.4378425,29.3211551 23.6973018,29.8122483 23.6973018,30.7944348 C23.6973018,31.7766213 24.4378425,33.0043544 25.4252301,33.7409942 L25.4252301,33.7409942 Z M11.3549571,25.6379558 C12.3423447,26.129049 13.0828854,25.6379558 13.0828854,24.6557693 C13.0828854,23.4280362 12.3423447,22.2003031 11.3549571,21.7092099 C10.3675695,21.2181167 9.62702885,21.7092099 9.62702885,22.6913964 C9.62702885,23.6735829 10.3675695,24.901316 11.3549571,25.6379558 L11.3549571,25.6379558 Z" fill="#0242A3"></path>
                            </g>
                        </g>
                        <g id="Group" transform="translate(0.000000, 70.345541)">
                            <g id="Shape">
                                <polygon fill="#0242A3" points="31.7679878 58.4228737 31.7679878 94.659846 0.333737037 76.4181049 0.579317122 40.1811326"></polygon>
                                <g transform="translate(31.714601, 18.428127)" fill="#7FBDFF">
                                    <polygon points="0.0533869748 39.9947469 73.7274122 0.0601243941 73.4818321 36.2970967 0.0533869748 76.2317193"></polygon>
                                </g>
                                <g fill="#ECF5FF">
                                    <polygon points="0.579317122 40.1811326 74.0077623 0.493020031 105.442013 18.4882512 31.7679878 58.4228737"></polygon>
                                </g>
                            </g>
                        </g>
                        <g id="Group" transform="translate(66.947266, 75.035244)">
                            <g id="Shape">
                                <polygon fill="#0242A3" points="30.9810547 28.7852217 30.7396269 64.2880084 0.0783008964 46.536615 0.0783008964 10.7906586"></polygon>
                                <g transform="translate(30.015344, 18.085752)" fill="#7FBDFF">
                                    <polygon points="0.965711055 10.69947 17.8656545 0.729509315 17.8656545 36.232296 0.724283292 46.2022566"></polygon>
                                </g>
                                <g fill="#ECF5FF">
                                    <polygon points="0.0783008964 10.7906586 16.9782444 0.820697979 47.8809981 18.8152611 30.9810547 28.7852217"></polygon>
                                </g>
                            </g>
                        </g>
                        <g id="Group" transform="translate(9.396108, 2.344851)">
                            <g id="Shape">
                                <polygon fill="#0242A3" points="33.283495 41.7310267 33.0321934 77.816091 0.865594249 59.6508205 1.11689581 23.5657563"></polygon>
                                <g transform="translate(32.669202, 18.561478)" fill="#7FBDFF">
                                    <polygon points="0.614292693 23.1695484 40.3199386 0.0947453651 40.3199386 36.1798096 0.362991137 59.2546126"></polygon>
                                </g>
                                <g transform="translate(1.116896, 0.000000)" fill="#ECF5FF">
                                    <polygon points="0 23.5657563 39.7056459 0.736429883 71.8722451 18.6562237 32.1665992 41.7310267"></polygon>
                                </g>
                            </g>
                        </g>
                        <g id="Group" transform="translate(130.370992, 125.449548)">
                            <g id="Shape">
                                <polygon fill="#0242A3" points="31.6270371 27.8056134 31.6270371 63.6602201 0.724283292 45.6109623 0.965711055 10.0002645"></polygon>
                                <g transform="translate(31.385609, 17.073622)" fill="#7FBDFF">
                                    <polygon points="0.241427764 10.7319911 17.382799 0.731726668 17.1413712 36.5863334 0.241427764 46.5865979"></polygon>
                                </g>
                                <g fill="#ECF5FF">
                                    <polygon points="0.965711055 10.0002645 17.8656545 0 48.7684083 17.8053489 31.6270371 27.8056134"></polygon>
                                </g>
                            </g>
                        </g>
                    </g>
                </g>
            </g>
        </g>
    </g>
</svg>